<?xml version="1.0" encoding="utf-8"?>
<!-- Generator: Adobe Illustrator 22.0.1, SVG Export Plug-In . SVG Version: 6.00 Build 0)  -->
<svg version="1.1" id="Layer_1" xmlns="http://www.w3.org/2000/svg" xmlns:xlink="http://www.w3.org/1999/xlink" x="0px" y="0px"
	 viewBox="0 0 106.3 40" style="enable-background:new 0 0 106.3 40;" xml:space="preserve">
<style type="text/css">
	.st0{fill:#0AA245;}
	.st1{fill:#A6CE42;}
	.st2{fill:#7A3720;}
	.st3{fill:#FFFFFF;}
	.st4{opacity:0.3;fill:#7A3720;}
</style>
<g>
	<path class="st0" d="M31.3,33.6c-5.2,0-9.8,2.4-12.8,6.1c1.1,0.2,2.2,0.3,3.4,0.3c2.5-2.3,5.8-3.7,9.4-3.7c0.7,0,1.3,0.1,2,0.2
		c0.9-0.6,1.8-1.4,2.6-2.2C34.4,33.9,32.9,33.6,31.3,33.6z"/>
	<path class="st0" d="M7.9,34.3c0.8,0.8,1.7,1.5,2.6,2.1c0,0,0.1,0,0.1,0c0.7-1,1.5-1.9,2.4-2.8c-0.2,0-0.3,0-0.5,0
		C10.9,33.6,9.3,33.9,7.9,34.3z"/>
	<path class="st1" d="M35.3,16.5c0.2,0.8,0.3,1.5,0.4,2.3l2.7,0.5c-0.1-1.5-0.3-3-0.7-4.3L35.3,16.5z"/>
	<path class="st2" d="M32.1,37.2c-0.3,0-0.6,0-0.9,0c-2.9,0-5.8,1-8.1,2.8C26.4,39.7,29.5,38.8,32.1,37.2z"/>
	<path class="st0" d="M4.9,15.7c-0.8-0.6-1.6-1.3-2.1-1.8c-0.6,1.9-0.9,4-0.9,6.1c0,2.6,0.5,5,1.4,7.2C4,27,4.8,26.7,5.7,26.5
		c-0.8-2-1.3-4.2-1.3-6.5C4.4,18.5,4.6,17.1,4.9,15.7z"/>
	<path class="st0" d="M21.9,0C17,0,12.6,1.7,9.1,4.6c1.2,0.3,2,0.8,2.5,1.2c2.9-2.1,6.4-3.4,10.3-3.4c3.8,0,7.2,1.2,10.1,3.2
		c1.1-0.2,2.4-0.3,3.9,0C32.2,2.2,27.3,0,21.9,0z"/>
	<path class="st0" d="M38.5,14.6c0.5,1.6,0.8,3.3,0.9,5.1l2.5,0.5c0,0,0-0.1,0-0.1c0-2.4-0.4-4.7-1.2-6.8L38.5,14.6z"/>
	<path class="st1" d="M8.4,17.1c-0.9,0-1.7-0.3-2.5-0.8c-0.3,1.2-0.4,2.4-0.4,3.7c0,2.2,0.4,4.3,1.2,6.3c0.9-0.2,1.8-0.4,2.7-0.5
		C8.5,24,8,22.1,8,20C8,19,8.2,18,8.4,17.1z"/>
	<path class="st1" d="M26.6,4.2c0.7,0.8,1.7,2.1,2.5,2.5c0.4-0.2,1-0.5,1.5-0.6C29.4,5.3,28.1,4.6,26.6,4.2z"/>
	<path class="st0" d="M12,26.6c-3,0.1-5.8,0.7-8.4,1.7c0.4,0.8,0.8,1.5,1.2,2.2c2.4-0.9,5-1.5,7.7-1.5c0.5,0,0.9,0,1.4,0l-0.2-0.9
		C13.2,28.2,12.5,27.3,12,26.6z"/>
	<path class="st1" d="M12.5,30.1c-2.5,0-4.9,0.5-7.1,1.3c0.5,0.7,1.1,1.4,1.7,2.1c1.7-0.6,3.5-0.9,5.4-0.9c0.5,0,1,0,1.4,0.1
		c0.2-0.2,0.4-0.4,0.6-0.6l-0.4-1.9C13.6,30.2,13.1,30.1,12.5,30.1z"/>
	<path class="st2" d="M41.3,21.2C41.3,21.2,41.3,21.2,41.3,21.2c-0.1,0-0.2,0-0.3-0.1c0,0-0.1,0-0.1,0c-0.1,0-0.1,0-0.2,0
		c0,0-0.1,0-0.1,0c-0.1,0-0.1,0-0.2,0c0,0-0.1,0-0.1,0c-0.1,0-0.1,0-0.2,0c0,0-0.1,0-0.1,0c-0.1,0-0.2,0-0.3-0.1c0,0-0.1,0-0.1,0
		c-0.1,0-0.2,0-0.2,0c-2.3-0.5-4.8-1-4.8-1L30.5,16c1.1,0.4,2.5,0.6,3.9-0.3c1-0.6,2.2-1.3,3.2-2c2.1-1.3,2.6-1.6,2.8-1.8
		c0.4-0.4,0.5-1,0.3-1.7c-0.2-0.8-1-2.6-4.3-3.3c-3.8-0.8-6.4,0.8-7.2,1.4c-0.2,0-0.5-0.1-1-0.5l0,0c-0.1-0.1-0.1-0.1-0.2-0.2
		c-0.2-0.2-0.4-0.5-0.6-0.7c-0.4-0.6-0.9-1.2-1.3-1.8c-1.2-1.9-2.4-3.7-4.1-3.9C19.9,0.9,16.8,0.8,15,3l0,0c0,0-0.6,0.9-1.4,1.8
		l-2.7,2.3c-0.8-0.8-2.3-1.8-4.2-1.9C4.6,5.1,2.5,6.1,0.5,8.3L0,8.8l0.5,0.6c0.5,0.7,4.6,6.3,8.2,6.3c0,0,0.1,0,0.1,0
		c1,0,1.7-0.1,2.3-0.3l0,0.5c0,0.9,0,2.4,0.2,3.9l0,0c0,0,0,0,0,0l0,0c0.4,4,1.3,6.5,2.8,7.5c0.1,0.1,0.2,0.2,0.4,0.2
		c0.2,1,0.6,2.3,0.9,3.8c0.5-0.5,1.1-0.9,1.6-1.3c0.3,0.3,0.9,0.6,1.6,0.5c0.3,0.4,0.5,0.6,0.8,0.7c0.5,0.2,2.1,0.4,3.4,0.4
		c0.2,0,0.5,0,0.7,0c0.4,0,0.8,0,1,0c0.7,0,1.3,0,2-0.6c0.1-0.1,0.3-0.2,0.3-0.3c0.6,0.1,1,0,1.2-0.1c0,0,0,0,0,0c0,0,0,0,0,0
		c0.1,0,0.1,0,0.2,0l0.1,0c0.1,0,0.1-0.1,0.2-0.1l0.1,0c0.1,0,0.1-0.1,0.2-0.1c0,0,0,0,0.1,0c0.1-0.1,0.1-0.1,0.2-0.2l0,0
		c0,0,0.1-0.1,0.1-0.2l0-0.1c0-0.1,0.1-0.1,0.1-0.2l0,0c0-0.1,0.1-0.1,0.1-0.2l0-0.1c0-0.1,0.1-0.2,0.1-0.3c0.2-0.6,0.4-2.1,0.3-3.6
		c0.4,0,0.8,0,1.2,0c3.2,0,6.2,0.6,9.2,1.8c0.8-1.9,1.3-4,1.4-6.2C41.7,21.3,41.5,21.2,41.3,21.2z"/>
	<g>
		<path class="st3" d="M29.8,9.2C29.8,9.2,29.8,9.2,29.8,9.2C29.8,9.2,29.8,9.2,29.8,9.2z"/>
		<path class="st3" d="M29.7,9.2C29.7,9.2,29.7,9.2,29.7,9.2C29.7,9.2,29.7,9.2,29.7,9.2z"/>
		<path class="st3" d="M27.7,8.5C27.7,8.5,27.7,8.5,27.7,8.5C27.7,8.5,27.7,8.5,27.7,8.5z"/>
		<path class="st3" d="M29.4,14.1c0,0,0.6-1.7-0.6-3.8c-0.4-0.8-0.9-1.4-1.4-2c0,0,0,0,0,0c-0.2-0.2-0.5-0.5-0.7-0.9
			c-1.7-2.4-3-5.2-4.7-5.4c-1.7-0.2-4.7-0.4-6.2,1.5c0,0-0.7,0.9-1.5,1.9c0,0-1.7,2.1-2,4.5c-0.3,2.4-0.2,5.1-0.2,5.1
			s-0.1,2.2,0.2,4.7c0.3,0.8,0.8,1.5,1.4,2.1c2.4,2.1,3.7,2.3,3.7,3.4c0,0.8,0,2.6,0.2,3.9c0.1,0.1,0.1,0.2,0.1,0.2s0.5,0.8,1.9,0
			c1.4-0.8,5.5-0.6,5.5-0.6s2.2,0.3,2.6,1c0,0,0.7,0.5,1-0.8c0.4-1.3,0.7-5.7-1.1-6.7c0,0,0.7-6.4,0.8-7.2
			C28.5,15.2,29.1,14.7,29.4,14.1z"/>
	</g>
	<path class="st4" d="M21.1,29.1c1.7-0.3,4-0.2,4-0.2s0.7,0.1,1.4,0.3c0.6-0.4,1.2-1,1.2-1c1.2-1.2,0.9-4,0.8-4.5
		c-0.1-0.5-0.8-1.1-0.8-1.1S27,22.9,25,23c-2,0-2.6-0.5-2.9-0.6c-0.1,0-0.3-0.1-0.5-0.1c-0.6,0-1.2,0.3-1.6,0.7l-0.7,0.8
		C18.8,26.5,20.4,28.3,21.1,29.1z"/>
	<path class="st2" d="M23.4,25.8c0,0-0.1-1.6-1.3-2c-1.2-0.5-0.7,1.5-0.7,1.5S21.7,26,23.4,25.8z"/>
	<path class="st2" d="M26.8,25.9c0,0,0-1.7,1.1-2.1C27.9,23.7,28.2,25.4,26.8,25.9z"/>
	<path class="st2" d="M26.2,13.3c0,0-0.1,3.2-0.2,4.2c0,0.7,0.1,1.6,0.3,2.4c0.3,1.2,0.8,2.3,1.3,2.6c0,0-2.5-1.2-2.2-5.6
		C25.8,12.5,26.2,13.3,26.2,13.3z"/>
	<path class="st2" d="M13.2,17c0.4,0.9,1.3,1.9,1.7,2.3c-0.1-0.4-0.8-1.9-0.9-2c-0.3-1.1-0.3-1.9-0.3-1.9c0.3,1,3.8,0.8,3.8,0.8
		c-1.2-3.5-2.3-3.9-3.6-3.2c-0.1,0.1-0.2,0-0.2-0.2c0.3-4.4,0.7-4.2,1.1-5.2c0.6-1.6-2,1.5-1.9,6.7C12.9,15.1,12.9,16.1,13.2,17z
		 M14.9,13.1c0.7,0,1.3,0.8,0.9,1.5c-0.1,0.1-0.2,0.2-0.3,0.3c-0.5,0.3-0.9,0.2-1.2-0.1c0.3,0.2,0.7,0.2,1.1,0
		c0.1-0.1,0.2-0.2,0.3-0.3C16,13.8,15.5,13.1,14.9,13.1C14.9,13.1,14.9,13.1,14.9,13.1z M14.4,13.3c0.2,0,0.4,0.2,0.4,0.4
		c0,0.2-0.2,0.4-0.4,0.4S14,13.8,14,13.6C14,13.4,14.2,13.3,14.4,13.3z"/>
	<path class="st2" d="M28.6,13.6c0-0.3,0-0.5,0-0.7c0-0.2-0.3-0.4-0.5-0.3c-0.6,0.4-1.1,1-1.3,1.8C26.6,15.3,26,16,26,16
		c0,0.3,0,1.2,0,1.2s0.7,0.7,1.3,0.7c0.6,0,0.4-1.4,0.5-1.7c0.1-0.2,0.3-0.6,0.5-1.1c0.3-0.2,0.5-0.6,0.5-0.8
		C28.8,14.1,28.8,13.7,28.6,13.6z M27.8,15.3c-0.5-0.1-0.5-0.8-0.3-1.2c0-0.1,0.1-0.2,0.2-0.3c0,0-0.1,0.1-0.1,0.2
		c-0.2,0.5-0.2,1.2,0.4,1.3c0.1,0,0.2,0,0.3-0.1C28.1,15.3,28,15.3,27.8,15.3z M28,14.3c-0.2,0-0.3-0.1-0.3-0.3s0.1-0.3,0.3-0.3
		c0.2,0,0.3,0.1,0.3,0.3S28.1,14.3,28,14.3z"/>
	<path class="st3" d="M20.6,30.1c0,0,0.9-0.3,2.1-0.4s3.1-0.1,3.7,0.2c0.5,0.2,0.4,0.4,0.4,0.4s-0.5,0.6-2.1,0.7
		c-1.9,0.1-3.5-0.2-3.9-0.2c-0.3,0-1.1-0.4-0.7-0.6C20.2,30.1,20.6,30.1,20.6,30.1z"/>
	<path class="st1" d="M30.4,30.1C30.4,30.2,30.4,30.2,30.4,30.1l-0.1,0.1c-0.1,0.1-0.1,0.2-0.2,0.3l0,0.1c-0.1,0.1-0.1,0.2-0.2,0.2
		l0,0.1c-0.1,0.1-0.2,0.2-0.3,0.3l-0.1,0.1c-0.1,0.1-0.2,0.1-0.2,0.2l-0.1,0c-0.1,0.1-0.3,0.1-0.4,0.2l-0.1,0c-0.1,0-0.2,0-0.3,0.1
		c0,0,0,0,0,0c-0.3,0.1-0.7,0.2-1.2,0.2c0,0,0,0-0.1,0.1c-0.9,0.8-1.8,0.8-2.6,0.8c-0.3,0-0.6,0-1,0c-0.2,0-0.5,0-0.7,0
		c-0.5,0-1.1,0-1.6-0.1c-2.6,1.5-4.9,3.5-6.6,6c0.8,0.3,1.7,0.6,2.6,0.8c3.2-4.2,8.2-6.9,13.9-6.9c1.9,0,3.7,0.3,5.4,0.9
		c0.6-0.7,1.2-1.4,1.7-2.1c-2.2-0.8-4.6-1.3-7-1.3C31,30.1,30.7,30.1,30.4,30.1z"/>
	<g>
		<path class="st0" d="M19.3,32.4c-0.4-0.1-0.7-0.4-1-0.7c-0.4,0-0.8-0.1-1.2-0.3c-2.1,1.6-4,3.6-5.5,5.9c0.7,0.4,1.5,0.8,2.3,1.2
			c1.6-2.3,3.6-4.3,5.9-5.8C19.6,32.4,19.4,32.4,19.3,32.4z"/>
		<path class="st0" d="M30.9,26.6c0,1-0.1,1.9-0.2,2.5c0.2,0,0.4,0,0.6,0c2.7,0,5.3,0.5,7.6,1.4c0.4-0.7,0.8-1.5,1.2-2.2
			c-2.7-1.1-5.7-1.7-8.8-1.7C31.2,26.6,31,26.6,30.9,26.6z"/>
	</g>
	<path class="st2" d="M90.1,26.5c-0.1,0.2-0.4,0.3-0.7,0.5c-0.3,0.1-0.6,0.2-1,0.1c-0.3-0.1-0.6-0.2-0.9-0.5
		c-0.2-0.3-0.4-0.8-0.4-1.4l0.1-5.5h0c0,0,0-0.1,0-0.1v-0.4c-0.1-3-0.9-5.4-2.6-7.3c-0.8-0.9-1.8-1.5-2.9-2
		c-1.1-0.5-2.4-0.7-3.8-0.7c-0.1,0-0.3,0-0.4,0c-0.1,0-0.2,0-0.4,0c-1.4,0.1-2.7,0.4-4,1c-1.2,0.6-2.3,1.3-3.2,2.3L70,12.6l0.1,0.2
		c0.3,0.5,0.6,0.8,0.9,1c0.4,0.2,0.8,0.3,1.2,0.3c0.4,0,0.8-0.1,1.2-0.2c0.4-0.1,0.8-0.2,1.3-0.4c0.4-0.1,0.8-0.3,1.3-0.4
		c0.4-0.1,0.8-0.2,1.3-0.2h0.5c0.4,0,0.8,0,1.2,0.1c0.3,0.1,0.7,0.2,1,0.3c0.8,0.4,1.4,1.1,1.7,2c0.3,0.7,0.5,1.5,0.6,2.5
		c-1.4-0.4-2.9-0.7-4.4-0.7c-1.1,0-2.2,0.1-3.2,0.4c-1,0.3-1.9,0.6-2.7,1.1c-0.9,0.6-1.5,1.2-1.9,2c-0.5,0.8-0.7,1.7-0.7,2.9v0.3
		c0,1.3,0.3,2.3,0.9,3.2c0.4,0.7,0.9,1.2,1.4,1.7c0.6,0.4,1.2,0.8,1.9,1.1c0.7,0.3,1.3,0.5,2,0.6c0.7,0.1,1.3,0.2,2,0.2
		c0.2,0,0.4,0,0.6,0c0.2,0,0.4,0,0.5,0c1.3-0.1,2.6-0.5,3.6-1.1c0.4-0.2,0.7-0.4,1-0.6c0.1,0.2,0.2,0.3,0.3,0.4
		c0.4,0.5,0.9,0.8,1.6,1.1c0.6,0.3,1.4,0.3,2.2,0.3c0.9-0.1,1.5-0.3,1.9-0.8c0.4-0.4,0.7-0.9,0.8-1.4C90.1,27.8,90.2,27.2,90.1,26.5
		z M82,22.8c-0.1,0.6-0.3,1.2-0.7,1.7c-0.1,0.3-0.3,0.6-0.5,0.8c-0.2,0.3-0.5,0.5-0.8,0.6c-0.6,0.4-1.4,0.7-2.2,0.7
		c-0.1,0-0.3,0-0.5,0c-0.8,0-1.4-0.1-1.9-0.3c-0.5-0.2-0.8-0.5-1.1-0.8c-0.3-0.3-0.4-0.6-0.5-1c-0.1-0.3-0.1-0.7-0.1-1
		c0-0.2,0-0.3,0-0.4c0-0.3,0.1-0.5,0.2-0.7c0.1-0.2,0.2-0.4,0.4-0.6c0.4-0.5,1-0.9,1.7-1.1c0.3-0.1,0.7-0.2,1.1-0.2
		c0.4,0,0.8-0.1,1.2-0.1c0.5,0,1,0,1.5,0.1c0.5,0.1,0.9,0.1,1.3,0.2c0.2,0.1,0.4,0.1,0.5,0.1c0.1,0,0.3,0.1,0.4,0.1c0,0,0.1,0,0.1,0
		c0,0,0,0,0.1,0C82.1,21.7,82.1,22.2,82,22.8z"/>
	<path class="st2" d="M97.6,31.5c0,0.9,0,1.7,0,2.2c0,0.6,0,1,0.1,1.4c0,0.4,0.1,0.6,0.1,0.8c-1.9,0-3.3-0.4-4.3-1.2
		c-1-0.8-1.5-2.1-1.5-3.9l0-16.2c0-1.5,0.2-2.9,0.7-4.3c0.4-1.3,1.1-2.5,2-3.5c0.9-1,1.9-1.8,3.1-2.4C99,4,100.4,3.7,102,3.7
		c0.9,0,1.7,0.2,2.3,0.5c0.7,0.3,1.3,0.7,1.6,1.4c0.2,0.5,0.4,1,0.4,1.5c0,0.3,0,0.7-0.1,1l-0.1,0.3l-0.2-0.1
		c-0.4-0.2-0.9-0.3-1.5-0.4c-0.6-0.1-1.2-0.2-1.9-0.2c-0.2,0-0.5,0-0.9,0.1c-0.4,0.1-0.8,0.2-1.2,0.4c-0.4,0.2-0.8,0.5-1.2,0.9
		c-0.4,0.4-0.7,0.9-1,1.5c-0.2,0.4-0.3,0.9-0.4,1.5c-0.1,0.6-0.2,1.2-0.2,2v0.5h6.2c0,1.4-0.4,2.5-1.1,3.3c-0.8,0.8-1.8,1.2-3.2,1.2
		h-1.8L97.6,31.5z"/>
	<path class="st2" d="M66.5,18.9c0-2-0.3-3.6-0.9-4.9c-0.6-1.3-1.3-2.3-2.3-3c-0.9-0.7-2-1.2-3.2-1.5c-1.2-0.3-2.3-0.4-3.4-0.4
		c-1.2,0-2.3,0.1-3.5,0.4c-0.9,0.2-1.6,0.5-2.4,0.9c-1-0.7-2.3-1-4.1-1c0,0.2,0.1,0.5,0.1,0.8c0,0.3,0.1,0.8,0.1,1.3
		c0,0.6,0,1.3,0.1,2.2v8.6l0,2.8c0,1.8,0.5,3,1.5,3.8c1,0.8,2.4,1.2,4.2,1.2c0-0.2-0.1-0.4-0.1-0.8c0-0.3-0.1-0.8-0.1-1.3
		c0-0.6,0-1.3-0.1-2.2v-6.9c0-1.3,0.1-2.3,0.4-3c0.3-0.8,0.6-1.4,1-1.8c0.4-0.4,0.8-0.7,1.3-0.9c0.5-0.1,1-0.2,1.5-0.2
		c0.5,0,1,0.1,1.5,0.2c0.5,0.1,1,0.4,1.4,0.9c0.4,0.4,0.8,1,1,1.8c0.3,0.8,0.4,1.8,0.4,3l0,6.3c0,1.8,0.5,3,1.5,3.8
		c1,0.8,2.4,1.2,4.2,1.2L66.5,18.9z"/>
</g>
</svg>
